<svg width="844" height="642" viewBox="0 0 844 642" fill="none" xmlns="http://www.w3.org/2000/svg">
<path d="M421 606.627L421 608.854C421.034 625.081 408.168 638.376 391.943 638.947C299.129 642.204 208.711 641.555 129.211 581.089C49.1283 520.187 6.35482 440.003 3.25318 339.887C1.18168 273.087 3.13 206.176 2.01027 139.331C1.70795 121.426 8.03439 116.502 24.8974 117.039C55.981 118.024 87.1205 117.151 118.226 117.207C225.742 117.386 302.667 190.553 307.18 297.764C308.49 328.808 306.99 359.964 307.897 391.042C308.456 410.145 299.555 411.846 284.595 406.765C262.693 399.334 246.536 377.288 245.17 351.224C244.442 337.268 245.024 323.246 244.778 309.246C243.445 235.318 190.605 180.313 117.073 179.138C53.2041 178.12 65.9465 172.748 65.8458 227.943C65.7562 278.358 63.0801 329.67 71.1197 379.034C89.8863 494.28 188.836 574.979 305.904 576.635C333.997 577.038 362.102 576.814 390.756 576.635C407.407 576.534 420.966 589.975 421 606.616L421 606.627Z" stroke="#263238" stroke-opacity="0.07" stroke-width="3" stroke-miterlimit="10"/>
<path d="M2.7633 32.6532C3.0766 16.8203 15.6867 4.00841 31.5081 3.30348C134.235 -1.25059 232.072 2.53143 314.737 74.9713C382.051 133.962 419.411 207.453 421.828 296.99C423.685 365.369 422.029 433.836 422.992 502.248C423.238 519.446 418.136 525.622 400.535 524.951C369.485 523.754 338.335 525.276 307.252 524.627C202.455 522.422 121.726 442.027 119.421 337.574C119.018 319.403 118.984 301.231 119.029 283.138C119.107 247.489 170.152 241.648 178.32 276.357C178.387 276.659 178.454 276.961 178.521 277.264C182.012 292.94 181.777 309.634 181.755 325.87C181.632 408.884 232.721 461.921 315.934 462.906C369.06 463.533 360.724 467.561 361.094 418.988C361.407 377.778 361.362 336.567 360.792 295.357C358.979 165.303 258.523 66.0422 128.327 65.4268C94.1221 65.2701 59.8612 64.5093 25.7121 65.9863C6.60116 66.8143 0.581434 59.6867 2.27098 41.7278C2.55071 38.729 2.69617 35.7191 2.7633 32.6532Z" stroke="#263238" stroke-opacity="0.07" stroke-width="3" stroke-miterlimit="10"/>
</svg>
