<svg width="102" height="67" viewBox="0 0 102 67" fill="none" xmlns="http://www.w3.org/2000/svg">
<path d="M5.29895 66.7065H4.94252C2.36038 66.7065 0.25348 64.668 0.158432 62.0902C-0.348492 47.3291 -0.245523 32.9487 9.36226 20.3054C19.0334 7.56695 31.7778 0.769389 47.6825 0.269685C58.2962 -0.0634515 68.9258 0.245889 79.5474 0.0713893C82.391 0.0237984 83.1751 1.03114 83.088 3.71209C82.9296 8.65361 83.0721 13.6031 83.0642 18.5525C83.0325 35.6535 71.4129 47.8843 54.3755 48.6061C49.4409 48.8124 44.4905 48.5744 39.5559 48.7172C36.5223 48.8044 36.253 47.3926 37.0609 45.013C38.2411 41.531 41.742 38.9611 45.8845 38.739C48.1023 38.62 50.328 38.7152 52.5537 38.6755C64.3001 38.4613 73.0366 30.0616 73.2267 18.3621C73.3851 8.20149 74.2406 10.232 65.4724 10.2162C57.4646 10.2003 49.3063 9.77199 41.4648 11.0569C23.1522 14.0393 10.3286 29.776 10.0672 48.392C10.0038 52.8576 10.0355 57.3311 10.0672 61.884C10.083 64.5332 7.94446 66.6907 5.29895 66.6907V66.7065Z" fill="#828282"/>
<path d="M96.5531 0.118978C99.0719 0.166569 101.108 2.17332 101.218 4.69563C101.939 21.0431 101.345 36.6132 89.8285 49.7721C80.4504 60.488 68.7753 66.4289 54.5418 66.8176C43.6747 67.111 32.7916 66.8493 21.9245 67C19.1918 67.0397 18.2097 66.2227 18.3205 63.4228C18.5106 58.4812 18.2651 53.5239 18.376 48.5744C18.7245 31.8938 31.5006 19.0443 48.1023 18.6794C50.9854 18.616 53.8765 18.608 56.7517 18.616C62.415 18.6318 63.3417 26.754 57.8289 28.0548C57.7814 28.0627 57.7339 28.0786 57.6863 28.0865C55.1913 28.6418 52.5458 28.6021 49.9637 28.6021C36.7678 28.5783 28.3402 36.7163 28.1818 49.9545C28.0788 58.4098 27.4452 57.0852 35.1599 57.1408C41.7103 57.1884 48.2607 57.1804 54.8032 57.0932C75.4683 56.8076 91.2463 40.8171 91.3413 20.0992C91.3651 14.658 91.4839 9.2009 91.2542 3.76761C91.1195 0.729727 92.2522 -0.230022 95.1116 0.0396596C95.5868 0.0872504 96.07 0.111046 96.5531 0.118978Z" fill="#0000F4"/>
</svg>
